<svg xmlns="http://www.w3.org/2000/svg" width="1920" height="1080"><path d="M550,1315L110,1336L1005,1340Z" fill="#b75745" stroke="#b75745" stroke-width="1.51"/><path d="M1309,1298L1005,1340L1535,1310Z" fill="#af1e1d" stroke="#af1e1d" stroke-width="1.51"/><path d="M636,-254L1086,-248L1652,-255Z" fill="#ffa68f" stroke="#ffa68f" stroke-width="1.51"/><path d="M1086,-248L1187,-238L1652,-255Z" fill="#ff9c86" stroke="#ff9c86" stroke-width="1.51"/><path d="M1187,-238L1368,-215L1652,-255Z" fill="#fa9782" stroke="#fa9782" stroke-width="1.51"/><path d="M636,-254L1652,-255L1814,-259Z" fill="#fc9a85" stroke="#fc9a85" stroke-width="1.51"/><path d="M1830,1275L1535,1310L2052,1271Z" fill="#950a14" stroke="#950a14" stroke-width="1.51"/><path d="M1814,-259L1897,-185L2070,-203Z" fill="#d48576" stroke="#d48576" stroke-width="1.51"/><path d="M1972,94L2077,126L2096,-27Z" fill="#c06c5b" stroke="#c06c5b" stroke-width="1.51"/><path d="M2096,335L1989,357L2097,532Z" fill="#ba4937" stroke="#ba4937" stroke-width="1.51"/><path d="M1989,357L1971,491L2097,532Z" fill="#be4533" stroke="#be4533" stroke-width="1.51"/><path d="M1953,1111L2074,1188L2107,962Z" fill="#980a15" stroke="#980a15" stroke-width="1.51"/><path d="M2089,667L1971,803L2111,876Z" fill="#b11e1c" stroke="#b11e1c" stroke-width="1.51"/><path d="M2097,532L2089,667L2111,876Z" fill="#b02721" stroke="#b02721" stroke-width="1.51"/><path d="M2070,-203L2096,-27L2132,189Z" fill="#bc7161" stroke="#bc7161" stroke-width="1.51"/><path d="M1952,192L2096,335L2132,189Z" fill="#bc5b48" stroke="#bc5b48" stroke-width="1.51"/><path d="M2077,126L1952,192L2132,189Z" fill="#be624f" stroke="#be624f" stroke-width="1.51"/><path d="M2096,-27L2077,126L2132,189Z" fill="#ba6756" stroke="#ba6756" stroke-width="1.51"/><path d="M2097,532L2111,876L2132,189Z" fill="#b33a2b" stroke="#b33a2b" stroke-width="1.51"/><path d="M2096,335L2097,532L2132,189Z" fill="#b54d3c" stroke="#b54d3c" stroke-width="1.51"/><path d="M1975,1236L1830,1275L2052,1271Z" fill="#8b0713" stroke="#8b0713" stroke-width="1.51"/><path d="M1971,491L1933,676L2089,667Z" fill="#be3528" stroke="#be3528" stroke-width="1.51"/><path d="M2070,-203L1894,-103L2096,-27Z" fill="#c77b6c" stroke="#c77b6c" stroke-width="1.51"/><path d="M1952,192L1989,357L2096,335Z" fill="#c15743" stroke="#c15743" stroke-width="1.51"/><path d="M1971,491L2089,667L2097,532Z" fill="#ba392b" stroke="#ba392b" stroke-width="1.51"/><path d="M1971,803L1884,948L2107,962Z" fill="#ae1519" stroke="#ae1519" stroke-width="1.51"/><path d="M1884,948L1953,1111L2107,962Z" fill="#a60e16" stroke="#a60e16" stroke-width="1.51"/><path d="M1971,803L2107,962L2111,876Z" fill="#a81519" stroke="#a81519" stroke-width="1.51"/><path d="M1933,676L1971,803L2089,667Z" fill="#bb2720" stroke="#bb2720" stroke-width="1.51"/><path d="M1368,-215L1506,-219L1652,-255Z" fill="#f3927f" stroke="#f3927f" stroke-width="1.51"/><path d="M1894,-103L1972,94L2096,-27Z" fill="#c97564" stroke="#c97564" stroke-width="1.51"/><path d="M1897,-185L1894,-103L2070,-203Z" fill="#d08171" stroke="#d08171" stroke-width="1.51"/><path d="M1975,1236L2052,1271L2074,1188Z" fill="#870612" stroke="#870612" stroke-width="1.51"/><path d="M1953,1111L1975,1236L2074,1188Z" fill="#930913" stroke="#930913" stroke-width="1.51"/><path d="M1972,94L1952,192L2077,126Z" fill="#c46754" stroke="#c46754" stroke-width="1.51"/><path d="M1631,1268L1535,1310L1830,1275Z" fill="#9d0c16" stroke="#9d0c16" stroke-width="1.51"/><path d="M1783,582L1827,668L1933,676Z" fill="#ce3627" stroke="#ce3627" stroke-width="1.51"/><path d="M1783,582L1933,676L1971,491Z" fill="#ca3b2b" stroke="#ca3b2b" stroke-width="1.51"/><path d="M1894,-103L1786,36L1972,94Z" fill="#d57863" stroke="#d57863" stroke-width="1.51"/><path d="M1953,1111L1837,1146L1975,1236Z" fill="#9d0d15" stroke="#9d0d15" stroke-width="1.51"/><path d="M1952,192L1825,232L1989,357Z" fill="#cc5e49" stroke="#cc5e49" stroke-width="1.51"/><path d="M1762,422L1971,491L1989,357Z" fill="#cc4d38" stroke="#cc4d38" stroke-width="1.51"/><path d="M1825,232L1762,422L1989,357Z" fill="#d15841" stroke="#d15841" stroke-width="1.51"/><path d="M1786,36L1825,232L1952,192Z" fill="#d56c55" stroke="#d56c55" stroke-width="1.51"/><path d="M1933,676L1827,668L1971,803Z" fill="#c52a22" stroke="#c52a22" stroke-width="1.51"/><path d="M1786,36L1952,192L1972,94Z" fill="#d06e59" stroke="#d06e59" stroke-width="1.51"/><path d="M1837,1146L1830,1275L1975,1236Z" fill="#990c14" stroke="#990c14" stroke-width="1.51"/><path d="M1884,948L1837,1146L1953,1111Z" fill="#a91016" stroke="#a91016" stroke-width="1.51"/><path d="M1730,829L1884,948L1971,803Z" fill="#c01d1c" stroke="#c01d1c" stroke-width="1.51"/><path d="M1762,422L1783,582L1971,491Z" fill="#d24733" stroke="#d24733" stroke-width="1.51"/><path d="M1827,668L1730,829L1971,803Z" fill="#c8251f" stroke="#c8251f" stroke-width="1.51"/><path d="M1746,1007L1837,1146L1884,948Z" fill="#b31218" stroke="#b31218" stroke-width="1.51"/><path d="M1748,-52L1786,36L1894,-103Z" fill="#dc7f6a" stroke="#dc7f6a" stroke-width="1.51"/><path d="M1748,-52L1894,-103L1897,-185Z" fill="#db8370" stroke="#db8370" stroke-width="1.51"/><path d="M1814,-259L1748,-52L1897,-185Z" fill="#de8674" stroke="#de8674" stroke-width="1.51"/><path d="M1730,829L1746,1007L1884,948Z" fill="#be171b" stroke="#be171b" stroke-width="1.51"/><path d="M1652,-255L1748,-52L1814,-259Z" fill="#e48977" stroke="#e48977" stroke-width="1.51"/><path d="M1593,270L1762,422L1825,232Z" fill="#db5e47" stroke="#db5e47" stroke-width="1.51"/><path d="M1786,36L1634,64L1825,232Z" fill="#dc725b" stroke="#dc725b" stroke-width="1.51"/><path d="M1669,650L1730,829L1827,668Z" fill="#d22d24" stroke="#d22d24" stroke-width="1.51"/><path d="M1746,1007L1592,1107L1837,1146Z" fill="#b41218" stroke="#b41218" stroke-width="1.51"/><path d="M1592,1107L1631,1268L1837,1146Z" fill="#ad1117" stroke="#ad1117" stroke-width="1.51"/><path d="M1631,1268L1830,1275L1837,1146Z" fill="#a00d15" stroke="#a00d15" stroke-width="1.51"/><path d="M1634,64L1593,270L1825,232Z" fill="#df6c54" stroke="#df6c54" stroke-width="1.51"/><path d="M1730,829L1674,856L1746,1007Z" fill="#c61b1d" stroke="#c61b1d" stroke-width="1.51"/><path d="M1783,582L1669,650L1827,668Z" fill="#d4392a" stroke="#d4392a" stroke-width="1.51"/><path d="M1593,270L1599,389L1762,422Z" fill="#df5a43" stroke="#df5a43" stroke-width="1.51"/><path d="M1762,422L1638,544L1783,582Z" fill="#d94733" stroke="#d94733" stroke-width="1.51"/><path d="M1748,-52L1634,64L1786,36Z" fill="#e07c66" stroke="#e07c66" stroke-width="1.51"/><path d="M1638,544L1669,650L1783,582Z" fill="#d93e2d" stroke="#d93e2d" stroke-width="1.51"/><path d="M1669,650L1674,856L1730,829Z" fill="#d12621" stroke="#d12621" stroke-width="1.51"/><path d="M1591,1044L1592,1107L1746,1007Z" fill="#bc151a" stroke="#bc151a" stroke-width="1.51"/><path d="M1652,-255L1589,-17L1748,-52Z" fill="#e78773" stroke="#e78773" stroke-width="1.51"/><path d="M1599,389L1638,544L1762,422Z" fill="#dd503a" stroke="#dd503a" stroke-width="1.51"/><path d="M1674,856L1591,1044L1746,1007Z" fill="#c2161b" stroke="#c2161b" stroke-width="1.51"/><path d="M1589,-17L1634,64L1748,-52Z" fill="#e67f68" stroke="#e67f68" stroke-width="1.51"/><path d="M1669,650L1523,693L1674,856Z" fill="#d92c24" stroke="#d92c24" stroke-width="1.51"/><path d="M1506,-219L1477,-60L1589,-17Z" fill="#f08b75" stroke="#f08b75" stroke-width="1.51"/><path d="M1514,185L1593,270L1634,64Z" fill="#e77057" stroke="#e77057" stroke-width="1.51"/><path d="M1506,-219L1589,-17L1652,-255Z" fill="#ee8c78" stroke="#ee8c78" stroke-width="1.51"/><path d="M1638,544L1523,693L1669,650Z" fill="#dd3c2c" stroke="#dd3c2c" stroke-width="1.51"/><path d="M1494,984L1591,1044L1674,856Z" fill="#c8181d" stroke="#c8181d" stroke-width="1.51"/><path d="M1482,894L1494,984L1674,856Z" fill="#cf1d1e" stroke="#cf1d1e" stroke-width="1.51"/><path d="M1523,693L1482,894L1674,856Z" fill="#d72622" stroke="#d72622" stroke-width="1.51"/><path d="M1592,1107L1535,1310L1631,1268Z" fill="#ab0f17" stroke="#ab0f17" stroke-width="1.51"/><path d="M1511,64L1514,185L1634,64Z" fill="#e9785f" stroke="#e9785f" stroke-width="1.51"/><path d="M1599,389L1446,514L1638,544Z" fill="#e44e38" stroke="#e44e38" stroke-width="1.51"/><path d="M1431,1176L1535,1310L1592,1107Z" fill="#b41519" stroke="#b41519" stroke-width="1.51"/><path d="M1446,514L1523,693L1638,544Z" fill="#e44331" stroke="#e44331" stroke-width="1.51"/><path d="M1589,-17L1511,64L1634,64Z" fill="#ea7d66" stroke="#ea7d66" stroke-width="1.51"/><path d="M1593,270L1451,379L1599,389Z" fill="#e65e46" stroke="#e65e46" stroke-width="1.51"/><path d="M1451,379L1446,514L1599,389Z" fill="#e8573f" stroke="#e8573f" stroke-width="1.51"/><path d="M1591,1044L1494,984L1592,1107Z" fill="#c2161b" stroke="#c2161b" stroke-width="1.51"/><path d="M1494,984L1431,1176L1592,1107Z" fill="#c1191c" stroke="#c1191c" stroke-width="1.51"/><path d="M1514,185L1451,379L1593,270Z" fill="#e9664e" stroke="#e9664e" stroke-width="1.51"/><path d="M1477,-60L1511,64L1589,-17Z" fill="#ee836c" stroke="#ee836c" stroke-width="1.51"/><path d="M1368,-215L1477,-60L1506,-219Z" fill="#f6917c" stroke="#f6917c" stroke-width="1.51"/><path d="M1348,278L1451,379L1514,185Z" fill="#ee6a4f" stroke="#ee6a4f" stroke-width="1.51"/><path d="M1446,514L1374,713L1523,693Z" fill="#e7402f" stroke="#e7402f" stroke-width="1.51"/><path d="M1369,817L1482,894L1523,693Z" fill="#de2d25" stroke="#de2d25" stroke-width="1.51"/><path d="M1374,713L1369,817L1523,693Z" fill="#e53328" stroke="#e53328" stroke-width="1.51"/><path d="M1431,1176L1309,1298L1535,1310Z" fill="#af181b" stroke="#af181b" stroke-width="1.51"/><path d="M1477,-60L1368,64L1511,64Z" fill="#f2846b" stroke="#f2846b" stroke-width="1.51"/><path d="M1511,64L1368,64L1514,185Z" fill="#ee7b62" stroke="#ee7b62" stroke-width="1.51"/><path d="M1377,516L1374,713L1446,514Z" fill="#ec4a34" stroke="#ec4a34" stroke-width="1.51"/><path d="M1336,1163L1431,1176L1494,984Z" fill="#c51e1d" stroke="#c51e1d" stroke-width="1.51"/><path d="M1368,64L1348,278L1514,185Z" fill="#f1765b" stroke="#f1765b" stroke-width="1.51"/><path d="M1284,985L1336,1163L1494,984Z" fill="#ce221f" stroke="#ce221f" stroke-width="1.51"/><path d="M1482,894L1284,985L1494,984Z" fill="#d32220" stroke="#d32220" stroke-width="1.51"/><path d="M1377,516L1446,514L1451,379Z" fill="#ec553e" stroke="#ec553e" stroke-width="1.51"/><path d="M1368,-215L1279,-56L1477,-60Z" fill="#f9927b" stroke="#f9927b" stroke-width="1.51"/><path d="M1369,817L1284,985L1482,894Z" fill="#da2923" stroke="#da2923" stroke-width="1.51"/><path d="M1279,-56L1368,64L1477,-60Z" fill="#f78a71" stroke="#f78a71" stroke-width="1.51"/><path d="M1336,1163L1309,1298L1431,1176Z" fill="#bb1f1d" stroke="#bb1f1d" stroke-width="1.51"/><path d="M1280,424L1377,516L1451,379Z" fill="#f05b41" stroke="#f05b41" stroke-width="1.51"/><path d="M1348,278L1280,424L1451,379Z" fill="#f16449" stroke="#f16449" stroke-width="1.51"/><path d="M457,1304L110,1336L550,1315Z" fill="#ba6452" stroke="#ba6452" stroke-width="1.51"/><path d="M843,1296L550,1315L1005,1340Z" fill="#b74635" stroke="#b74635" stroke-width="1.51"/><path d="M1284,985L1217,1043L1336,1163Z" fill="#d12722" stroke="#d12722" stroke-width="1.51"/><path d="M1238,78L1218,274L1348,278Z" fill="#f9795c" stroke="#f9795c" stroke-width="1.51"/><path d="M1238,78L1348,278L1368,64Z" fill="#f77e62" stroke="#f77e62" stroke-width="1.51"/><path d="M1279,-56L1238,78L1368,64Z" fill="#fb8a6f" stroke="#fb8a6f" stroke-width="1.51"/><path d="M1187,-238L1279,-56L1368,-215Z" fill="#ff9981" stroke="#ff9981" stroke-width="1.51"/><path d="M1203,850L1284,985L1369,817Z" fill="#e12f26" stroke="#e12f26" stroke-width="1.51"/><path d="M1203,850L1369,817L1374,713Z" fill="#e73529" stroke="#e73529" stroke-width="1.51"/><path d="M1166,566L1128,724L1374,713Z" fill="#f34933" stroke="#f34933" stroke-width="1.51"/><path d="M1166,566L1374,713L1377,516Z" fill="#f14c35" stroke="#f14c35" stroke-width="1.51"/><path d="M1280,424L1166,566L1377,516Z" fill="#f5593e" stroke="#f5593e" stroke-width="1.51"/><path d="M1128,724L1203,850L1374,713Z" fill="#ee3d2c" stroke="#ee3d2c" stroke-width="1.51"/><path d="M1218,274L1280,424L1348,278Z" fill="#f66b4f" stroke="#f66b4f" stroke-width="1.51"/><path d="M1133,1239L1005,1340L1309,1298Z" fill="#b62c23" stroke="#b62c23" stroke-width="1.51"/><path d="M1217,1043L1195,1095L1336,1163Z" fill="#cf2922" stroke="#cf2922" stroke-width="1.51"/><path d="M1133,1239L1309,1298L1336,1163Z" fill="#bd231f" stroke="#bd231f" stroke-width="1.51"/><path d="M1195,1095L1133,1239L1336,1163Z" fill="#c92a22" stroke="#c92a22" stroke-width="1.51"/><path d="M1187,-238L1154,-44L1279,-56Z" fill="#ff9a81" stroke="#ff9a81" stroke-width="1.51"/><path d="M1218,274L1173,401L1280,424Z" fill="#f86a4e" stroke="#f86a4e" stroke-width="1.51"/><path d="M1154,-44L1238,78L1279,-56Z" fill="#fe9176" stroke="#fe9176" stroke-width="1.51"/><path d="M1173,401L1166,566L1280,424Z" fill="#f76145" stroke="#f76145" stroke-width="1.51"/><path d="M1203,850L1217,1043L1284,985Z" fill="#dd2e26" stroke="#dd2e26" stroke-width="1.51"/><path d="M1066,112L1218,274L1238,78Z" fill="#fb8467" stroke="#fb8467" stroke-width="1.51"/><path d="M1203,850L1081,881L1217,1043Z" fill="#e1372a" stroke="#e1372a" stroke-width="1.51"/><path d="M1066,112L1048,289L1218,274Z" fill="#fb8162" stroke="#fb8162" stroke-width="1.51"/><path d="M1154,-44L1066,112L1238,78Z" fill="#fe9074" stroke="#fe9074" stroke-width="1.51"/><path d="M1059,-11L1066,112L1154,-44Z" fill="#ff967a" stroke="#ff967a" stroke-width="1.51"/><path d="M1086,-248L1154,-44L1187,-238Z" fill="#ffa189" stroke="#ffa189" stroke-width="1.51"/><path d="M991,1026L1195,1095L1217,1043Z" fill="#d63628" stroke="#d63628" stroke-width="1.51"/><path d="M1081,881L991,1026L1217,1043Z" fill="#dd3b2c" stroke="#dd3b2c" stroke-width="1.51"/><path d="M1048,289L1173,401L1218,274Z" fill="#f97456" stroke="#f97456" stroke-width="1.51"/><path d="M991,1026L1032,1114L1195,1095Z" fill="#d53a2b" stroke="#d53a2b" stroke-width="1.51"/><path d="M636,-254L762,-184L1086,-248Z" fill="#ffb7a0" stroke="#ffb7a0" stroke-width="1.51"/><path d="M1011,388L1166,566L1173,401Z" fill="#f9694a" stroke="#f9694a" stroke-width="1.51"/><path d="M1032,1114L1133,1239L1195,1095Z" fill="#cd3527" stroke="#cd3527" stroke-width="1.51"/><path d="M1128,724L1081,881L1203,850Z" fill="#eb412f" stroke="#eb412f" stroke-width="1.51"/><path d="M1086,-248L1059,-11L1154,-44Z" fill="#ffa086" stroke="#ffa086" stroke-width="1.51"/><path d="M989,595L1128,724L1166,566Z" fill="#f6583d" stroke="#f6583d" stroke-width="1.51"/><path d="M989,595L1038,727L1128,724Z" fill="#f6553b" stroke="#f6553b" stroke-width="1.51"/><path d="M1011,388L989,595L1166,566Z" fill="#f96647" stroke="#f96647" stroke-width="1.51"/><path d="M1048,289L1011,388L1173,401Z" fill="#fa7455" stroke="#fa7455" stroke-width="1.51"/><path d="M1038,727L1081,881L1128,724Z" fill="#f04934" stroke="#f04934" stroke-width="1.51"/><path d="M762,-184L917,-159L1086,-248Z" fill="#ffaf97" stroke="#ffaf97" stroke-width="1.51"/><path d="M917,-159L1059,-11L1086,-248Z" fill="#ffa78d" stroke="#ffa78d" stroke-width="1.51"/><path d="M1032,1114L1005,1340L1133,1239Z" fill="#c23629" stroke="#c23629" stroke-width="1.51"/><path d="M692,1277L550,1315L843,1296Z" fill="#bb4f3c" stroke="#bb4f3c" stroke-width="1.51"/><path d="M891,505L989,595L1011,388Z" fill="#fc6e4e" stroke="#fc6e4e" stroke-width="1.51"/><path d="M845,1182L1005,1340L1032,1114Z" fill="#c73f2d" stroke="#c73f2d" stroke-width="1.51"/><path d="M896,92L1048,289L1066,112Z" fill="#fd8e6e" stroke="#fd8e6e" stroke-width="1.51"/><path d="M1038,727L895,838L1081,881Z" fill="#ee4d36" stroke="#ee4d36" stroke-width="1.51"/><path d="M895,838L991,1026L1081,881Z" fill="#e64733" stroke="#e64733" stroke-width="1.51"/><path d="M896,92L870,294L1048,289Z" fill="#fd8c6c" stroke="#fd8c6c" stroke-width="1.51"/><path d="M1059,-11L896,92L1066,112Z" fill="#ff9779" stroke="#ff9779" stroke-width="1.51"/><path d="M917,-159L863,-18L1059,-11Z" fill="#ffa68b" stroke="#ffa68b" stroke-width="1.51"/><path d="M895,838L865,986L991,1026Z" fill="#e34b36" stroke="#e34b36" stroke-width="1.51"/><path d="M845,1182L843,1296L1005,1340Z" fill="#be4130" stroke="#be4130" stroke-width="1.51"/><path d="M863,-18L896,92L1059,-11Z" fill="#ff9f82" stroke="#ff9f82" stroke-width="1.51"/><path d="M870,294L1011,388L1048,289Z" fill="#fc7f5e" stroke="#fc7f5e" stroke-width="1.51"/><path d="M871,443L891,505L1011,388Z" fill="#fc7655" stroke="#fc7655" stroke-width="1.51"/><path d="M989,595L856,633L1038,727Z" fill="#f85f42" stroke="#f85f42" stroke-width="1.51"/><path d="M856,633L895,838L1038,727Z" fill="#f6583e" stroke="#f6583e" stroke-width="1.51"/><path d="M991,1026L845,1182L1032,1114Z" fill="#d44430" stroke="#d44430" stroke-width="1.51"/><path d="M870,294L871,443L1011,388Z" fill="#fc7d5d" stroke="#fc7d5d" stroke-width="1.51"/><path d="M865,986L845,1182L991,1026Z" fill="#d94935" stroke="#d94935" stroke-width="1.51"/><path d="M891,505L856,633L989,595Z" fill="#fa6a4a" stroke="#fa6a4a" stroke-width="1.51"/><path d="M24,-221L264,-212L433,-250Z" fill="#ffdcce" stroke="#ffdcce" stroke-width="1.51"/><path d="M723,1013L845,1182L865,986Z" fill="#da503a" stroke="#da503a" stroke-width="1.51"/><path d="M856,633L748,818L895,838Z" fill="#f55e43" stroke="#f55e43" stroke-width="1.51"/><path d="M681,239L870,294L896,92Z" fill="#fd9575" stroke="#fd9575" stroke-width="1.51"/><path d="M687,110L681,239L896,92Z" fill="#fd9f80" stroke="#fd9f80" stroke-width="1.51"/><path d="M762,-184L863,-18L917,-159Z" fill="#ffb097" stroke="#ffb097" stroke-width="1.51"/><path d="M723,1013L717,1164L845,1182Z" fill="#d5523c" stroke="#d5523c" stroke-width="1.51"/><path d="M715,639L748,818L856,633Z" fill="#f8684b" stroke="#f8684b" stroke-width="1.51"/><path d="M762,-184L729,-36L863,-18Z" fill="#ffb298" stroke="#ffb298" stroke-width="1.51"/><path d="M870,294L706,383L871,443Z" fill="#fc8563" stroke="#fc8563" stroke-width="1.51"/><path d="M724,506L856,633L891,505Z" fill="#fc7352" stroke="#fc7352" stroke-width="1.51"/><path d="M748,818L865,986L895,838Z" fill="#ea563d" stroke="#ea563d" stroke-width="1.51"/><path d="M863,-18L687,110L896,92Z" fill="#ffa386" stroke="#ffa386" stroke-width="1.51"/><path d="M729,-36L687,110L863,-18Z" fill="#ffab8f" stroke="#ffab8f" stroke-width="1.51"/><path d="M871,443L724,506L891,505Z" fill="#fc7958" stroke="#fc7958" stroke-width="1.51"/><path d="M724,506L715,639L856,633Z" fill="#fa7353" stroke="#fa7353" stroke-width="1.51"/><path d="M748,818L723,1013L865,986Z" fill="#e6573f" stroke="#e6573f" stroke-width="1.51"/><path d="M706,383L724,506L871,443Z" fill="#fc8160" stroke="#fc8160" stroke-width="1.51"/><path d="M681,239L706,383L870,294Z" fill="#fc8f6f" stroke="#fc8f6f" stroke-width="1.51"/><path d="M692,1277L843,1296L845,1182Z" fill="#c14a37" stroke="#c14a37" stroke-width="1.51"/><path d="M717,1164L692,1277L845,1182Z" fill="#c94f3b" stroke="#c94f3b" stroke-width="1.51"/><path d="M576,660L588,819L715,639Z" fill="#f97254" stroke="#f97254" stroke-width="1.51"/><path d="M588,819L588,1005L723,1013Z" fill="#e66148" stroke="#e66148" stroke-width="1.51"/><path d="M588,819L723,1013L748,818Z" fill="#eb6147" stroke="#eb6147" stroke-width="1.51"/><path d="M715,639L588,819L748,818Z" fill="#f6694c" stroke="#f6694c" stroke-width="1.51"/><path d="M536,-89L729,-36L762,-184Z" fill="#ffb9a1" stroke="#ffb9a1" stroke-width="1.51"/><path d="M636,-254L536,-89L762,-184Z" fill="#ffbfa9" stroke="#ffbfa9" stroke-width="1.51"/><path d="M681,239L613,284L706,383Z" fill="#fc9575" stroke="#fc9575" stroke-width="1.51"/><path d="M588,1005L717,1164L723,1013Z" fill="#db5a43" stroke="#db5a43" stroke-width="1.51"/><path d="M612,565L715,639L724,506Z" fill="#fb7a5a" stroke="#fb7a5a" stroke-width="1.51"/><path d="M613,284L622,371L706,383Z" fill="#fc9272" stroke="#fc9272" stroke-width="1.51"/><path d="M588,1005L541,1172L717,1164Z" fill="#d65d46" stroke="#d65d46" stroke-width="1.51"/><path d="M706,383L622,371L724,506Z" fill="#fc8968" stroke="#fc8968" stroke-width="1.51"/><path d="M622,371L612,565L724,506Z" fill="#fc8564" stroke="#fc8564" stroke-width="1.51"/><path d="M530,95L687,110L729,-36Z" fill="#feae93" stroke="#feae93" stroke-width="1.51"/><path d="M536,-89L530,95L729,-36Z" fill="#ffb89e" stroke="#ffb89e" stroke-width="1.51"/><path d="M541,1172L692,1277L717,1164Z" fill="#ca5642" stroke="#ca5642" stroke-width="1.51"/><path d="M612,565L576,660L715,639Z" fill="#fb795a" stroke="#fb795a" stroke-width="1.51"/><path d="M530,95L681,239L687,110Z" fill="#fda789" stroke="#fda789" stroke-width="1.51"/><path d="M530,95L613,284L681,239Z" fill="#fda384" stroke="#fda384" stroke-width="1.51"/><path d="M541,1172L550,1315L692,1277Z" fill="#c25844" stroke="#c25844" stroke-width="1.51"/><path d="M588,819L445,966L588,1005Z" fill="#e96950" stroke="#e96950" stroke-width="1.51"/><path d="M530,95L472,280L613,284Z" fill="#fda688" stroke="#fda688" stroke-width="1.51"/><path d="M441,504L612,565L622,371Z" fill="#fd8c6c" stroke="#fd8c6c" stroke-width="1.51"/><path d="M433,-250L536,-89L636,-254Z" fill="#ffc8b3" stroke="#ffc8b3" stroke-width="1.51"/><path d="M433,-250L458,-113L536,-89Z" fill="#ffc9b5" stroke="#ffc9b5" stroke-width="1.51"/><path d="M576,660L454,717L588,819Z" fill="#f97659" stroke="#f97659" stroke-width="1.51"/><path d="M442,838L445,966L588,819Z" fill="#ee7056" stroke="#ee7056" stroke-width="1.51"/><path d="M613,284L472,280L622,371Z" fill="#fd9b7b" stroke="#fd9b7b" stroke-width="1.51"/><path d="M472,280L441,504L622,371Z" fill="#fd9878" stroke="#fd9878" stroke-width="1.51"/><path d="M380,366L441,504L472,280Z" fill="#fd9d7f" stroke="#fd9d7f" stroke-width="1.51"/><path d="M436,1107L541,1172L588,1005Z" fill="#d9654d" stroke="#d9654d" stroke-width="1.51"/><path d="M441,504L576,660L612,565Z" fill="#fc8464" stroke="#fc8464" stroke-width="1.51"/><path d="M415,38L530,95L536,-89Z" fill="#febca4" stroke="#febca4" stroke-width="1.51"/><path d="M541,1172L457,1304L550,1315Z" fill="#c25d49" stroke="#c25d49" stroke-width="1.51"/><path d="M441,504L454,717L576,660Z" fill="#fc8364" stroke="#fc8364" stroke-width="1.51"/><path d="M454,717L442,838L588,819Z" fill="#f57559" stroke="#f57559" stroke-width="1.51"/><path d="M445,966L436,1107L588,1005Z" fill="#e06951" stroke="#e06951" stroke-width="1.51"/><path d="M233,1262L110,1336L457,1304Z" fill="#be6c5a" stroke="#be6c5a" stroke-width="1.51"/><path d="M415,38L472,280L530,95Z" fill="#fdb397" stroke="#fdb397" stroke-width="1.51"/><path d="M458,-113L415,38L536,-89Z" fill="#ffc4ae" stroke="#ffc4ae" stroke-width="1.51"/><path d="M436,1107L457,1304L541,1172Z" fill="#ce644e" stroke="#ce644e" stroke-width="1.51"/><path d="M441,504L327,651L454,717Z" fill="#fc8a6b" stroke="#fc8a6b" stroke-width="1.51"/><path d="M262,47L331,294L415,38Z" fill="#fcbda3" stroke="#fcbda3" stroke-width="1.51"/><path d="M335,521L327,651L441,504Z" fill="#fe9273" stroke="#fe9273" stroke-width="1.51"/><path d="M436,1107L233,1262L457,1304Z" fill="#c96955" stroke="#c96955" stroke-width="1.51"/><path d="M282,-69L415,38L458,-113Z" fill="#fec9b4" stroke="#fec9b4" stroke-width="1.51"/><path d="M433,-250L264,-212L458,-113Z" fill="#ffd1bf" stroke="#ffd1bf" stroke-width="1.51"/><path d="M415,38L331,294L472,280Z" fill="#fdb194" stroke="#fdb194" stroke-width="1.51"/><path d="M331,294L380,366L472,280Z" fill="#fca689" stroke="#fca689" stroke-width="1.51"/><path d="M244,1092L233,1262L436,1107Z" fill="#d6725b" stroke="#d6725b" stroke-width="1.51"/><path d="M380,366L335,521L441,504Z" fill="#fe997a" stroke="#fe997a" stroke-width="1.51"/><path d="M327,651L233,853L442,838Z" fill="#f88165" stroke="#f88165" stroke-width="1.51"/><path d="M442,838L281,969L445,966Z" fill="#eb755b" stroke="#eb755b" stroke-width="1.51"/><path d="M281,969L436,1107L445,966Z" fill="#e27159" stroke="#e27159" stroke-width="1.51"/><path d="M327,651L442,838L454,717Z" fill="#fa8062" stroke="#fa8062" stroke-width="1.51"/><path d="M264,-212L282,-69L458,-113Z" fill="#fed1bf" stroke="#fed1bf" stroke-width="1.51"/><path d="M281,969L244,1092L436,1107Z" fill="#df745d" stroke="#df745d" stroke-width="1.51"/><path d="M233,853L281,969L442,838Z" fill="#ef7c62" stroke="#ef7c62" stroke-width="1.51"/><path d="M282,-69L262,47L415,38Z" fill="#fec8b2" stroke="#fec8b2" stroke-width="1.51"/><path d="M275,366L335,521L380,366Z" fill="#fea183" stroke="#fea183" stroke-width="1.51"/><path d="M331,294L275,366L380,366Z" fill="#fda88b" stroke="#fda88b" stroke-width="1.51"/><path d="M183,635L233,853L327,651Z" fill="#fd8c70" stroke="#fd8c70" stroke-width="1.51"/><path d="M262,47L140,290L331,294Z" fill="#fdbaa1" stroke="#fdbaa1" stroke-width="1.51"/><path d="M106,491L183,635L335,521Z" fill="#ff9d80" stroke="#ff9d80" stroke-width="1.51"/><path d="M275,366L117,432L335,521Z" fill="#ffa488" stroke="#ffa488" stroke-width="1.51"/><path d="M117,432L106,491L335,521Z" fill="#ffa488" stroke="#ffa488" stroke-width="1.51"/><path d="M183,635L327,651L335,521Z" fill="#ff9476" stroke="#ff9476" stroke-width="1.51"/><path d="M140,290L275,366L331,294Z" fill="#feaf94" stroke="#feaf94" stroke-width="1.51"/><path d="M183,635L97,832L233,853Z" fill="#fb8c72" stroke="#fb8c72" stroke-width="1.51"/><path d="M103,1021L157,1099L244,1092Z" fill="#e07e67" stroke="#e07e67" stroke-width="1.51"/><path d="M157,1099L233,1262L244,1092Z" fill="#d87762" stroke="#d87762" stroke-width="1.51"/><path d="M88,55L140,290L262,47Z" fill="#fdc6b0" stroke="#fdc6b0" stroke-width="1.51"/><path d="M24,-221L107,-172L264,-212Z" fill="#ffe1d5" stroke="#ffe1d5" stroke-width="1.51"/><path d="M107,-172L158,-64L264,-212Z" fill="#ffdccd" stroke="#ffdccd" stroke-width="1.51"/><path d="M103,1021L244,1092L281,969Z" fill="#e47c65" stroke="#e47c65" stroke-width="1.51"/><path d="M233,853L103,1021L281,969Z" fill="#ec7f68" stroke="#ec7f68" stroke-width="1.51"/><path d="M264,-212L158,-64L282,-69Z" fill="#fed7c6" stroke="#fed7c6" stroke-width="1.51"/><path d="M158,-64L262,47L282,-69Z" fill="#fed1bd" stroke="#fed1bd" stroke-width="1.51"/><path d="M140,290L117,432L275,366Z" fill="#ffb095" stroke="#ffb095" stroke-width="1.51"/><path d="M158,-64L88,55L262,47Z" fill="#fed1be" stroke="#fed1be" stroke-width="1.51"/><path d="M97,832L103,1021L233,853Z" fill="#f1866f" stroke="#f1866f" stroke-width="1.51"/><path d="M157,1099L110,1336L233,1262Z" fill="#cb7664" stroke="#cb7664" stroke-width="1.51"/><path d="M88,55L34,68L140,290Z" fill="#fecbb6" stroke="#fecbb6" stroke-width="1.51"/><path d="M34,68L-38,230L140,290Z" fill="#ffc8b2" stroke="#ffc8b2" stroke-width="1.51"/><path d="M-35,1302L110,1336L157,1099Z" fill="#ca7a6a" stroke="#ca7a6a" stroke-width="1.51"/><path d="M-39,1106L-35,1302L157,1099Z" fill="#d8816f" stroke="#d8816f" stroke-width="1.51"/><path d="M-8,794L97,832L183,635Z" fill="#ff9379" stroke="#ff9379" stroke-width="1.51"/><path d="M-61,647L-8,794L183,635Z" fill="#ff9b81" stroke="#ff9b81" stroke-width="1.51"/><path d="M106,491L-26,522L183,635Z" fill="#ffa589" stroke="#ffa589" stroke-width="1.51"/><path d="M-26,522L-61,647L183,635Z" fill="#ffa389" stroke="#ffa389" stroke-width="1.51"/><path d="M97,832L-28,991L103,1021Z" fill="#ee8973" stroke="#ee8973" stroke-width="1.51"/><path d="M-3,348L117,432L140,290Z" fill="#ffb69d" stroke="#ffb69d" stroke-width="1.51"/><path d="M107,-172L15,-55L158,-64Z" fill="#fedfd0" stroke="#fedfd0" stroke-width="1.51"/><path d="M15,-55L88,55L158,-64Z" fill="#fed9c9" stroke="#fed9c9" stroke-width="1.51"/><path d="M103,1021L-39,1106L157,1099Z" fill="#e1836f" stroke="#e1836f" stroke-width="1.51"/><path d="M-38,230L-3,348L140,290Z" fill="#ffbfa8" stroke="#ffbfa8" stroke-width="1.51"/><path d="M-8,794L-28,991L97,832Z" fill="#f58f78" stroke="#f58f78" stroke-width="1.51"/><path d="M-26,522L106,491L117,432Z" fill="#ffac91" stroke="#ffac91" stroke-width="1.51"/><path d="M-3,348L-26,522L117,432Z" fill="#ffb198" stroke="#ffb198" stroke-width="1.51"/><path d="M15,-55L34,68L88,55Z" fill="#fed7c6" stroke="#fed7c6" stroke-width="1.51"/><path d="M24,-221L15,-55L107,-172Z" fill="#ffe4d7" stroke="#ffe4d7" stroke-width="1.51"/><path d="M-28,991L-39,1106L103,1021Z" fill="#e68773" stroke="#e68773" stroke-width="1.51"/><path d="M-171,892L-28,991L-8,794Z" fill="#f5917b" stroke="#f5917b" stroke-width="1.51"/><path d="M-188,-161L15,-55L24,-221Z" fill="#ffe8dc" stroke="#ffe8dc" stroke-width="1.51"/><path d="M-222,141L-38,230L34,68Z" fill="#ffd0be" stroke="#ffd0be" stroke-width="1.51"/><path d="M15,-55L-177,-50L34,68Z" fill="#ffddcf" stroke="#ffddcf" stroke-width="1.51"/><path d="M-177,-50L-222,141L34,68Z" fill="#ffdacb" stroke="#ffdacb" stroke-width="1.51"/><path d="M-171,892L-133,977L-28,991Z" fill="#f08e7b" stroke="#f08e7b" stroke-width="1.51"/><path d="M-202,401L-26,522L-3,348Z" fill="#ffb69e" stroke="#ffb69e" stroke-width="1.51"/><path d="M-188,-161L-177,-50L15,-55Z" fill="#ffe6db" stroke="#ffe6db" stroke-width="1.51"/><path d="M-214,243L-202,401L-38,230Z" fill="#ffc5b0" stroke="#ffc5b0" stroke-width="1.51"/><path d="M-39,1106L-218,1236L-35,1302Z" fill="#d28373" stroke="#d28373" stroke-width="1.51"/><path d="M-61,647L-138,669L-8,794Z" fill="#ff9d85" stroke="#ff9d85" stroke-width="1.51"/><path d="M-38,230L-202,401L-3,348Z" fill="#ffbfa9" stroke="#ffbfa9" stroke-width="1.51"/><path d="M-138,669L-171,892L-8,794Z" fill="#fe9982" stroke="#fe9982" stroke-width="1.51"/><path d="M-197,1102L-218,1236L-39,1106Z" fill="#dd8977" stroke="#dd8977" stroke-width="1.51"/><path d="M-133,977L-39,1106L-28,991Z" fill="#e98a77" stroke="#e98a77" stroke-width="1.51"/><path d="M-222,574L-61,647L-26,522Z" fill="#ffa990" stroke="#ffa990" stroke-width="1.51"/><path d="M-202,401L-222,574L-26,522Z" fill="#ffb29a" stroke="#ffb29a" stroke-width="1.51"/><path d="M-222,574L-138,669L-61,647Z" fill="#ffa68e" stroke="#ffa68e" stroke-width="1.51"/><path d="M-222,141L-214,243L-38,230Z" fill="#ffcdbb" stroke="#ffcdbb" stroke-width="1.51"/><path d="M-133,977L-197,1102L-39,1106Z" fill="#e58b78" stroke="#e58b78" stroke-width="1.51"/><path d="M-222,574L-171,892L-138,669Z" fill="#ffa18a" stroke="#ffa18a" stroke-width="1.51"/><path d="M-171,892L-197,1102L-133,977Z" fill="#ed8f7d" stroke="#ed8f7d" stroke-width="1.51"/><path d="M-222,574L-197,1102L-171,892Z" fill="#f99783" stroke="#f99783" stroke-width="1.51"/><path d="M-188,-161L-222,141L-177,-50Z" fill="#ffe4d8" stroke="#ffe4d8" stroke-width="1.51"/><path d="M-222,574L-218,1236L-197,1102Z" fill="#f0917f" stroke="#f0917f" stroke-width="1.51"/><path d="M-214,243L-222,574L-202,401Z" fill="#ffbda7" stroke="#ffbda7" stroke-width="1.51"/><path d="M-222,141L-222,574L-214,243Z" fill="#ffc5b0" stroke="#ffc5b0" stroke-width="1.51"/></svg>